<svg width="52" height="24" viewBox="0 0 52 24" fill="none" xmlns="http://www.w3.org/2000/svg">
<rect width="50" height="4" rx="2" transform="matrix(-1 0 0 1 52 10)" fill="#B1B4C5"/>
<path fill-rule="evenodd" clip-rule="evenodd" d="M12.6453 2.00934C11.9206 1.28749 10.7469 1.29331 10.0294 2.02232L1.43934 10.7505C0.727942 11.4733 0.733707 12.6349 1.45224 13.3507C2.17692 14.0725 3.35064 14.0667 4.06812 13.3377L12.6582 4.60951C13.3696 3.88668 13.3638 2.72507 12.6453 2.00934Z" fill="#B1B4C5"/>
<path fill-rule="evenodd" clip-rule="evenodd" d="M12.6451 21.9907C13.3637 21.2749 13.3694 20.1133 12.658 19.3905L4.06793 10.6623C3.35045 9.93329 2.17673 9.92747 1.45205 10.6493C0.73352 11.3651 0.727754 12.5267 1.43915 13.2495L10.0292 21.9777C10.7467 22.7067 11.9204 22.7125 12.6451 21.9907Z" fill="#B1B4C5"/>
</svg>
