<svg width="98" height="119" viewBox="0 0 98 119" fill="none" xmlns="http://www.w3.org/2000/svg">
<path d="M93.944 24.2261C93.1164 23.9085 92.2546 23.7708 91.4593 23.8264C90.31 23.9068 89.3819 24.3755 88.832 25.1427C85.5934 29.6995 82.9409 38.3054 80.802 45.2201C79.8203 48.4179 78.5025 52.6971 77.5482 54.7281C76.5528 49.038 77.6772 28.1939 78.1133 20.1667L78.1203 20.0371C78.4228 14.4601 78.4634 13.4822 78.3971 13.0527C77.9167 9.99344 76.6962 7.98535 74.7679 7.08652C72.8186 6.17499 70.2869 6.57828 67.5597 8.22661C66.1925 9.05712 65.8144 11.9079 64.6406 24.8295L64.6364 24.8864C63.9901 31.9853 62.5027 48.3309 60.6722 51.053C58.607 47.2445 55.7656 25.6056 54.5392 16.2392C53.6808 9.67944 53.181 5.91297 52.8452 4.77562C52.1376 2.3924 49.1511 0.364505 46.1939 0.252145C43.7325 0.129458 41.7129 1.38707 40.7491 3.57224C38.9458 5.58786 39.5829 12.2722 41.5761 28.1036C42.5249 35.6381 44.4832 51.2016 43.2507 52.9473C40.7933 52.679 36.5745 42.9303 30.7099 23.9638C29.0646 18.6522 28.5553 17.0546 28.0499 16.3552C27.0538 13.9194 23.6681 12.0406 20.6326 12.2529C20.3733 12.271 20.1214 12.3048 19.8724 12.3525C18.2834 12.6695 14.6575 14.1385 15.4304 20.9181C17.5716 30.3174 19.8972 37.2187 22.1543 43.9168L22.2 44.051C23.5504 48.0629 24.8271 51.8538 26.0134 56.0608C28.8096 65.9937 27.7223 72.1565 27.709 72.226C27.6161 72.8604 27.4211 73.2475 27.1278 73.383C27.0223 73.4329 26.887 73.4625 26.7345 73.4731C25.8485 73.5351 24.5193 72.9458 23.8342 72.5615C22.2696 69.558 14.4791 55.2421 7.41996 53.2566L7.16635 53.1814L6.90972 53.2053C4.3206 53.4509 2.41686 54.434 1.25342 56.1264C-0.590264 58.803 0.172905 62.2121 0.35804 62.8955L0.462103 63.1406C0.519723 63.2436 6.18078 73.61 7.05693 78.4322C7.81245 82.5665 11.7213 87.0473 14.864 90.6473L14.9934 90.7937C16.0186 91.9718 16.9034 92.9898 17.6011 93.9322C26.7199 103.486 41.1411 111.521 41.2586 111.586C43.0579 112.92 44.0585 114.208 44.1641 115.318C44.231 116.044 43.8555 116.478 43.8424 116.493L43.5284 116.822L45.5217 118.768L83.5684 116.083L85.1904 108.617C90.2064 87.5309 89.1593 69.552 89.1427 69.432C89.161 68.7706 90.5669 62.3736 91.6974 57.2051L91.7307 57.0736C93.9844 46.7775 96.7871 33.966 97.3245 29.0933C97.5584 27.0098 96.2314 25.0959 93.944 24.2261Z" fill="#3B4262"/>
</svg>
