<svg width="107" height="110" viewBox="0 0 107 110" fill="none" xmlns="http://www.w3.org/2000/svg">
<ellipse cx="53.1891" cy="54.8152" rx="53.1891" ry="54.8152" fill="#B1B4C5"/>
<ellipse cx="53.1891" cy="52.385" rx="53.1891" ry="52.385" fill="url(#paint0_linear_0_1152)"/>
<ellipse cx="53.189" cy="53.4651" rx="40.8321" ry="41.0439" fill="#E1E4ED"/>
<path d="M69.0533 42.8386C68.7524 42.7225 68.4392 42.6722 68.15 42.6925C67.7322 42.7219 67.3948 42.8932 67.1949 43.1735C66.0175 44.8388 65.0532 47.9837 64.2756 50.5105C63.9187 51.6791 63.4396 53.2429 63.0927 53.9851C62.7308 51.9057 63.1395 44.2886 63.2981 41.3551L63.3007 41.3078C63.4106 39.2697 63.4254 38.9124 63.4013 38.7554C63.2266 37.6375 62.7829 36.9036 62.0819 36.5752C61.3732 36.2421 60.4528 36.3894 59.4614 36.9918C58.9643 37.2953 58.8268 38.3371 58.4001 43.0591L58.3986 43.0799C58.1636 45.6741 57.6229 51.6473 56.9574 52.6421C56.2066 51.2503 55.1736 43.3427 54.7278 39.9199C54.4157 37.5227 54.234 36.1463 54.1119 35.7307C53.8547 34.8598 52.7689 34.1187 51.6939 34.0777C50.799 34.0328 50.0648 34.4924 49.7144 35.2909C49.0588 36.0275 49.2904 38.4702 50.015 44.2556C50.36 47.0089 51.0719 52.6964 50.6239 53.3343C49.7305 53.2363 48.1967 49.6738 46.0647 42.7427C45.4665 40.8017 45.2814 40.2178 45.0976 39.9623C44.7355 39.0722 43.5046 38.3856 42.4011 38.4632C42.3068 38.4698 42.2152 38.4821 42.1247 38.4996C41.547 38.6154 40.2288 39.1522 40.5098 41.6297C41.2882 45.0646 42.1337 47.5865 42.9543 50.0343L42.9709 50.0833C43.4619 51.5494 43.926 52.9347 44.3573 54.4721C45.3738 58.1019 44.9785 60.354 44.9737 60.3794C44.9399 60.6112 44.869 60.7527 44.7624 60.8022C44.724 60.8205 44.6749 60.8313 44.6194 60.8352C44.2973 60.8578 43.8141 60.6425 43.565 60.502C42.9962 59.4044 40.164 54.1729 37.5976 53.4473L37.5054 53.4199L37.4121 53.4286C36.4709 53.5184 35.7788 53.8776 35.3558 54.4961C34.6855 55.4742 34.963 56.72 35.0303 56.9697L35.0681 57.0593C35.0891 57.0969 37.1471 60.8852 37.4657 62.6474C37.7403 64.1582 39.1614 65.7956 40.3039 67.1112L40.351 67.1647C40.7237 67.5952 41.0453 67.9672 41.299 68.3116C44.6141 71.8028 49.8569 74.7394 49.8996 74.7629C50.5538 75.2504 50.9175 75.7213 50.9559 76.1266C50.9802 76.392 50.8437 76.5506 50.839 76.556L50.7248 76.6762L51.4495 77.3874L65.2813 76.4063L65.871 73.678C67.6945 65.9724 67.3138 59.4023 67.3078 59.3584C67.3145 59.1167 67.8256 56.779 68.2366 54.8903L68.2487 54.8422C69.068 51.0796 70.0869 46.3979 70.2823 44.6172C70.3673 43.8559 69.8849 43.1564 69.0533 42.8386Z" fill="#8A90AC"/>
<defs>
<linearGradient id="paint0_linear_0_1152" x1="0" y1="0" x2="0" y2="104.77" gradientUnits="userSpaceOnUse">
<stop stop-color="white" stop-opacity="0.0966455"/>
<stop offset="1" stop-color="white" stop-opacity="0.01"/>
</linearGradient>
</defs>
</svg>
