<svg width="136" height="139" viewBox="0 0 136 139" fill="none" xmlns="http://www.w3.org/2000/svg">
<g filter="url(#filter0_d_0_1376)">
<ellipse cx="67.6828" cy="66.3291" rx="64.6828" ry="66.3291" fill="#2A45C2"/>
</g>
<ellipse cx="67.6828" cy="63.3884" rx="64.6828" ry="63.3884" fill="#4664F4"/>
<ellipse cx="67.6828" cy="63.3884" rx="64.6828" ry="63.3884" fill="url(#paint0_linear_0_1376)"/>
<ellipse cx="67.6828" cy="64.6953" rx="49.6555" ry="49.6651" fill="#BABFD4"/>
<ellipse cx="67.6828" cy="67.3093" rx="49.6555" ry="47.0512" fill="url(#paint1_linear_0_1376)"/>
<path d="M86.9754 51.8367C86.6095 51.6963 86.2285 51.6354 85.8769 51.66C85.3688 51.6955 84.9585 51.9028 84.7154 52.242C83.2836 54.257 82.1109 58.0625 81.1652 61.1201C80.7312 62.5341 80.1486 64.4264 79.7267 65.3245C79.2866 62.8084 79.7837 53.5913 79.9765 50.0417L79.9797 49.9843C80.1134 47.5182 80.1314 47.0858 80.102 46.8959C79.8897 45.5431 79.35 44.6551 78.4975 44.2577C77.6357 43.8546 76.5165 44.0329 75.3107 44.7618C74.7063 45.1291 74.5391 46.3897 74.0202 52.1035L74.0183 52.1287C73.7326 55.2678 73.075 62.4957 72.2657 63.6994C71.3526 62.0153 70.0965 52.4467 69.5542 48.305C69.1748 45.4043 68.9538 43.7388 68.8053 43.2358C68.4925 42.182 67.1721 41.2853 65.8647 41.2356C64.7765 41.1813 63.8836 41.7374 63.4575 42.7037C62.6603 43.595 62.9419 46.5507 63.8232 53.5513C64.2426 56.883 65.1084 63.7651 64.5635 64.537C63.4771 64.4184 61.6119 60.1076 59.0191 51.7207C58.2917 49.3719 58.0666 48.6655 57.8431 48.3563C57.4027 47.2792 55.9059 46.4484 54.5639 46.5422C54.4493 46.5502 54.3379 46.5652 54.2278 46.5863C53.5253 46.7265 51.9222 47.376 52.2639 50.3739C53.2106 54.5302 54.2388 57.5819 55.2366 60.5438L55.2568 60.6031C55.8539 62.3772 56.4183 64.0535 56.9428 65.9138C58.179 70.3061 57.6983 73.0312 57.6924 73.062C57.6513 73.3425 57.5651 73.5137 57.4355 73.5736C57.3888 73.5956 57.329 73.6087 57.2616 73.6134C56.8699 73.6408 56.2822 73.3802 55.9793 73.2103C55.2876 71.8822 51.8434 65.5518 48.7225 64.6738L48.6103 64.6406L48.4969 64.6511C47.3522 64.7597 46.5106 65.1944 45.9962 65.9428C45.1811 67.1264 45.5185 68.6339 45.6003 68.9361L45.6463 69.0444C45.6718 69.09 48.1746 73.6739 48.562 75.8063C48.896 77.6345 50.6241 79.6158 52.0135 81.2078L52.0708 81.2725C52.524 81.7934 52.9152 82.2436 53.2236 82.6603C57.2551 86.8847 63.6308 90.4382 63.6828 90.4667C64.4783 91.0565 64.9206 91.6263 64.9673 92.1168C64.9969 92.4379 64.8309 92.6299 64.8251 92.6364L64.6863 92.7819L65.5676 93.6424L82.3883 92.4552L83.1054 89.1539C85.323 79.8297 84.8601 71.8795 84.8527 71.8265C84.8608 71.534 85.4824 68.7053 85.9822 66.4198L85.9969 66.3617C86.9933 61.8088 88.2324 56.1436 88.47 53.9889C88.5734 53.0677 87.9867 52.2213 86.9754 51.8367Z" fill="#3B4262"/>
<defs>
<filter id="filter0_d_0_1376" x="0" y="0" width="135.366" height="138.658" filterUnits="userSpaceOnUse" color-interpolation-filters="sRGB">
<feFlood flood-opacity="0" result="BackgroundImageFix"/>
<feColorMatrix in="SourceAlpha" type="matrix" values="0 0 0 0 0 0 0 0 0 0 0 0 0 0 0 0 0 0 127 0" result="hardAlpha"/>
<feOffset dy="3"/>
<feGaussianBlur stdDeviation="1.5"/>
<feColorMatrix type="matrix" values="0 0 0 0 0 0 0 0 0 0 0 0 0 0 0 0 0 0 0.196706 0"/>
<feBlend mode="normal" in2="BackgroundImageFix" result="effect1_dropShadow_0_1376"/>
<feBlend mode="normal" in="SourceGraphic" in2="effect1_dropShadow_0_1376" result="shape"/>
</filter>
<linearGradient id="paint0_linear_0_1376" x1="3" y1="0" x2="3" y2="126.777" gradientUnits="userSpaceOnUse">
<stop stop-color="white" stop-opacity="0.0966455"/>
<stop offset="1" stop-color="white" stop-opacity="0.01"/>
</linearGradient>
<linearGradient id="paint1_linear_0_1376" x1="116.515" y1="114.36" x2="116.515" y2="21.8179" gradientUnits="userSpaceOnUse">
<stop stop-color="#F3F3F3"/>
<stop offset="1" stop-color="#DADADA"/>
</linearGradient>
</defs>
</svg>
