<svg width="162" height="100" viewBox="0 0 162 100" fill="none" xmlns="http://www.w3.org/2000/svg">
<g filter="url(#filter0_d_0_1666)">
<path d="M17.28 29C16.9867 29 16.8 28.8667 16.72 28.6L12.68 17.56C12.6267 17.4533 12.56 17.4 12.48 17.4H9.96C9.82667 17.4 9.76 17.4667 9.76 17.6V28.52C9.76 28.6533 9.70667 28.7733 9.6 28.88C9.52 28.96 9.41333 29 9.28 29H4.6C4.46667 29 4.34667 28.96 4.24 28.88C4.16 28.7733 4.12 28.6533 4.12 28.52V1.48C4.12 1.34667 4.16 1.24 4.24 1.16C4.34667 1.05333 4.46667 0.999998 4.6 0.999998H14.36C15.9333 0.999998 17.3333 1.36 18.56 2.08C19.7867 2.77333 20.7333 3.76 21.4 5.04C22.0667 6.32 22.4 7.78667 22.4 9.44C22.4 11.1467 22.0267 12.6267 21.28 13.88C20.5333 15.1333 19.48 16.0667 18.12 16.68C17.9867 16.7333 17.9467 16.8267 18 16.96L22.56 28.44C22.5867 28.4933 22.6 28.56 22.6 28.64C22.6 28.88 22.4533 29 22.16 29H17.28ZM9.96 5.84C9.82667 5.84 9.76 5.90667 9.76 6.04V12.88C9.76 13.0133 9.82667 13.08 9.96 13.08H13.44C14.4267 13.08 15.2267 12.76 15.84 12.12C16.4533 11.4533 16.76 10.5733 16.76 9.48C16.76 8.36 16.4533 7.48 15.84 6.84C15.2267 6.17333 14.4267 5.84 13.44 5.84H9.96ZM34.6388 29.36C32.7988 29.36 31.1721 28.9867 29.7588 28.24C28.3721 27.4933 27.2921 26.44 26.5188 25.08C25.7454 23.72 25.3588 22.1333 25.3588 20.32V9.68C25.3588 7.89333 25.7454 6.32 26.5188 4.96C27.2921 3.6 28.3721 2.54667 29.7588 1.8C31.1721 1.05333 32.7988 0.68 34.6388 0.68C36.4788 0.68 38.1054 1.05333 39.5188 1.8C40.9321 2.54667 42.0254 3.6 42.7988 4.96C43.5721 6.32 43.9588 7.89333 43.9588 9.68V20.32C43.9588 22.1333 43.5721 23.72 42.7988 25.08C42.0254 26.44 40.9321 27.4933 39.5188 28.24C38.1054 28.9867 36.4788 29.36 34.6388 29.36ZM34.6388 24.52C35.7588 24.52 36.6521 24.16 37.3188 23.44C37.9854 22.6933 38.3188 21.7333 38.3188 20.56V9.52C38.3188 8.32 37.9854 7.36 37.3188 6.64C36.6521 5.89333 35.7588 5.52 34.6388 5.52C33.5454 5.52 32.6654 5.89333 31.9988 6.64C31.3321 7.36 30.9988 8.32 30.9988 9.52V20.56C30.9988 21.7333 31.3321 22.6933 31.9988 23.44C32.6654 24.16 33.5454 24.52 34.6388 24.52ZM56.3938 29.32C54.5804 29.32 52.9804 28.96 51.5938 28.24C50.2071 27.52 49.1271 26.4933 48.3538 25.16C47.6071 23.8267 47.2338 22.28 47.2338 20.52V9.4C47.2338 7.66667 47.6071 6.14667 48.3538 4.84C49.1271 3.50667 50.2071 2.48 51.5938 1.76C52.9804 1.04 54.5804 0.68 56.3938 0.68C58.2071 0.68 59.8071 1.04 61.1938 1.76C62.5804 2.45333 63.6471 3.44 64.3938 4.72C65.1671 6 65.5538 7.49333 65.5538 9.2V9.4C65.5538 9.53333 65.5004 9.65333 65.3938 9.76C65.3138 9.86667 65.2071 9.92 65.0738 9.92L60.3938 10.12C60.0738 10.12 59.9138 9.97333 59.9138 9.68V9.16C59.9138 8.06667 59.5938 7.18667 58.9538 6.52C58.3138 5.85333 57.4604 5.52 56.3938 5.52C55.3271 5.52 54.4738 5.85333 53.8338 6.52C53.1938 7.18667 52.8738 8.06667 52.8738 9.16V20.88C52.8738 21.9733 53.1938 22.8533 53.8338 23.52C54.4738 24.16 55.3271 24.48 56.3938 24.48C57.4604 24.48 58.3138 24.16 58.9538 23.52C59.5938 22.8533 59.9138 21.9733 59.9138 20.88V20.36C59.9138 20.0667 60.0738 19.92 60.3938 19.92L65.0738 20.12C65.2071 20.12 65.3138 20.1733 65.3938 20.28C65.5004 20.36 65.5538 20.4667 65.5538 20.6V20.72C65.5538 22.4267 65.1671 23.9333 64.3938 25.24C63.6471 26.5467 62.5804 27.56 61.1938 28.28C59.8071 28.9733 58.2071 29.32 56.3938 29.32ZM69.6391 29C69.5057 29 69.3857 28.96 69.2791 28.88C69.1991 28.7733 69.1591 28.6533 69.1591 28.52V1.48C69.1591 1.34667 69.1991 1.24 69.2791 1.16C69.3857 1.05333 69.5057 0.999998 69.6391 0.999998H74.3191C74.4524 0.999998 74.5591 1.05333 74.6391 1.16C74.7457 1.24 74.7991 1.34667 74.7991 1.48V12.12C74.7991 12.2 74.8257 12.2533 74.8791 12.28C74.9591 12.3067 75.0124 12.28 75.0391 12.2L82.1991 1.32C82.3324 1.10666 82.5191 0.999998 82.7591 0.999998H87.9191C88.1057 0.999998 88.2257 1.05333 88.2791 1.16C88.3591 1.26667 88.3457 1.4 88.2391 1.56L80.8391 13.04C80.8124 13.12 80.8124 13.2133 80.8391 13.32L88.6791 28.44C88.7324 28.5467 88.7591 28.6267 88.7591 28.68C88.7591 28.8933 88.6124 29 88.3191 29H83.1991C82.9591 29 82.7724 28.88 82.6391 28.64L76.9591 17.68C76.9324 17.6 76.8924 17.56 76.8391 17.56C76.7857 17.56 76.7324 17.6 76.6791 17.68L74.8791 20.28C74.8257 20.3867 74.7991 20.4667 74.7991 20.52V28.52C74.7991 28.6533 74.7457 28.7733 74.6391 28.88C74.5591 28.96 74.4524 29 74.3191 29H69.6391ZM14.16 32.96C15.76 32.96 17.1733 33.32 18.4 34.04C19.6533 34.76 20.6133 35.7733 21.28 37.08C21.9733 38.3867 22.32 39.88 22.32 41.56C22.32 43.2133 21.9733 44.68 21.28 45.96C20.6133 47.2133 19.6533 48.1867 18.4 48.88C17.1733 49.5733 15.76 49.92 14.16 49.92H9.84C9.70667 49.92 9.64 49.9867 9.64 50.12V60.52C9.64 60.6533 9.58667 60.7733 9.48 60.88C9.4 60.96 9.29333 61 9.16 61H4.48C4.34667 61 4.22667 60.96 4.12 60.88C4.04 60.7733 4 60.6533 4 60.52V33.44C4 33.3067 4.04 33.2 4.12 33.12C4.22667 33.0133 4.34667 32.96 4.48 32.96H14.16ZM13.24 45.44C14.28 45.44 15.1067 45.1067 15.72 44.44C16.36 43.7467 16.68 42.8267 16.68 41.68C16.68 40.5067 16.36 39.5733 15.72 38.88C15.1067 38.1867 14.28 37.84 13.24 37.84H9.84C9.70667 37.84 9.64 37.9067 9.64 38.04V45.24C9.64 45.3733 9.70667 45.44 9.84 45.44H13.24ZM38.3731 61C38.0798 61 37.8931 60.8667 37.8131 60.6L36.8931 56.68C36.8665 56.5733 36.7998 56.52 36.6931 56.52H29.2131C29.1065 56.52 29.0398 56.5733 29.0131 56.68L28.0931 60.6C28.0131 60.8667 27.8398 61 27.5731 61H22.7331C22.3865 61 22.2531 60.8267 22.3331 60.48L29.5331 33.4C29.6131 33.1333 29.7998 33 30.0931 33H35.8931C36.1865 33 36.3731 33.1333 36.4531 33.4L43.6531 60.48L43.6931 60.64C43.6931 60.88 43.5465 61 43.2531 61H38.3731ZM30.0931 51.92C30.0665 52 30.0798 52.0667 30.1331 52.12C30.1865 52.1467 30.2398 52.16 30.2931 52.16H35.5731C35.6265 52.16 35.6798 52.1467 35.7331 52.12C35.7865 52.0667 35.7998 52 35.7731 51.92L33.0131 40.32C32.9865 40.2133 32.9465 40.16 32.8931 40.16C32.8398 40.16 32.7998 40.2133 32.7731 40.32L30.0931 51.92ZM56.6991 32.96C58.2991 32.96 59.7124 33.32 60.9391 34.04C62.1924 34.76 63.1524 35.7733 63.8191 37.08C64.5124 38.3867 64.8591 39.88 64.8591 41.56C64.8591 43.2133 64.5124 44.68 63.8191 45.96C63.1524 47.2133 62.1924 48.1867 60.9391 48.88C59.7124 49.5733 58.2991 49.92 56.6991 49.92H52.3791C52.2457 49.92 52.1791 49.9867 52.1791 50.12V60.52C52.1791 60.6533 52.1257 60.7733 52.0191 60.88C51.9391 60.96 51.8324 61 51.6991 61H47.0191C46.8857 61 46.7657 60.96 46.6591 60.88C46.5791 60.7733 46.5391 60.6533 46.5391 60.52V33.44C46.5391 33.3067 46.5791 33.2 46.6591 33.12C46.7657 33.0133 46.8857 32.96 47.0191 32.96H56.6991ZM55.7791 45.44C56.8191 45.44 57.6457 45.1067 58.2591 44.44C58.8991 43.7467 59.2191 42.8267 59.2191 41.68C59.2191 40.5067 58.8991 39.5733 58.2591 38.88C57.6457 38.1867 56.8191 37.84 55.7791 37.84H52.3791C52.2457 37.84 52.1791 37.9067 52.1791 38.04V45.24C52.1791 45.3733 52.2457 45.44 52.3791 45.44H55.7791ZM84.9491 37.36C84.9491 37.4933 84.8957 37.6133 84.7891 37.72C84.7091 37.8 84.6024 37.84 84.4691 37.84H73.7491C73.6157 37.84 73.5491 37.9067 73.5491 38.04V44.28C73.5491 44.4133 73.6157 44.48 73.7491 44.48H80.4291C80.5624 44.48 80.6691 44.5333 80.7491 44.64C80.8557 44.72 80.9091 44.8267 80.9091 44.96V48.84C80.9091 48.9733 80.8557 49.0933 80.7491 49.2C80.6691 49.28 80.5624 49.32 80.4291 49.32H73.7491C73.6157 49.32 73.5491 49.3867 73.5491 49.52V55.96C73.5491 56.0933 73.6157 56.16 73.7491 56.16H84.4691C84.6024 56.16 84.7091 56.2133 84.7891 56.32C84.8957 56.4 84.9491 56.5067 84.9491 56.64V60.52C84.9491 60.6533 84.8957 60.7733 84.7891 60.88C84.7091 60.96 84.6024 61 84.4691 61H68.3891C68.2557 61 68.1357 60.96 68.0291 60.88C67.9491 60.7733 67.9091 60.6533 67.9091 60.52V33.48C67.9091 33.3467 67.9491 33.24 68.0291 33.16C68.1357 33.0533 68.2557 33 68.3891 33H84.4691C84.6024 33 84.7091 33.0533 84.7891 33.16C84.8957 33.24 84.9491 33.3467 84.9491 33.48V37.36ZM101.499 61C101.205 61 101.019 60.8667 100.939 60.6L96.8988 49.56C96.8454 49.4533 96.7788 49.4 96.6988 49.4H94.1788C94.0454 49.4 93.9788 49.4667 93.9788 49.6V60.52C93.9788 60.6533 93.9254 60.7733 93.8188 60.88C93.7388 60.96 93.6321 61 93.4988 61H88.8188C88.6854 61 88.5654 60.96 88.4588 60.88C88.3788 60.7733 88.3388 60.6533 88.3388 60.52V33.48C88.3388 33.3467 88.3788 33.24 88.4588 33.16C88.5654 33.0533 88.6854 33 88.8188 33H98.5788C100.152 33 101.552 33.36 102.779 34.08C104.005 34.7733 104.952 35.76 105.619 37.04C106.285 38.32 106.619 39.7867 106.619 41.44C106.619 43.1467 106.245 44.6267 105.499 45.88C104.752 47.1333 103.699 48.0667 102.339 48.68C102.205 48.7333 102.165 48.8267 102.219 48.96L106.779 60.44C106.805 60.4933 106.819 60.56 106.819 60.64C106.819 60.88 106.672 61 106.379 61H101.499ZM94.1788 37.84C94.0454 37.84 93.9788 37.9067 93.9788 38.04V44.88C93.9788 45.0133 94.0454 45.08 94.1788 45.08H97.6588C98.6454 45.08 99.4454 44.76 100.059 44.12C100.672 43.4533 100.979 42.5733 100.979 41.48C100.979 40.36 100.672 39.48 100.059 38.84C99.4454 38.1733 98.6454 37.84 97.6588 37.84H94.1788ZM12.52 93.32C10.68 93.32 9.06667 93 7.68 92.36C6.29333 91.6933 5.21333 90.7733 4.44 89.6C3.69333 88.4 3.32 87.0267 3.32 85.48V84.44C3.32 84.3067 3.36 84.2 3.44 84.12C3.54667 84.0133 3.66667 83.96 3.8 83.96H8.4C8.53333 83.96 8.64 84.0133 8.72 84.12C8.82667 84.2 8.88 84.3067 8.88 84.44V85.2C8.88 86.1333 9.22667 86.92 9.92 87.56C10.6133 88.1733 11.5467 88.48 12.72 88.48C13.76 88.48 14.5467 88.2133 15.08 87.68C15.64 87.1467 15.92 86.4667 15.92 85.64C15.92 85.0267 15.7467 84.5067 15.4 84.08C15.0533 83.6267 14.56 83.2133 13.92 82.84C13.3067 82.44 12.3467 81.9067 11.04 81.24C9.44 80.44 8.13333 79.6933 7.12 79C6.10667 78.3067 5.24 77.4133 4.52 76.32C3.8 75.2267 3.44 73.9067 3.44 72.36C3.44 70.8133 3.8 69.4667 4.52 68.32C5.26667 67.1467 6.30667 66.2533 7.64 65.64C8.97333 65 10.4933 64.68 12.2 64.68C13.9867 64.68 15.5733 65.0267 16.96 65.72C18.3467 66.3867 19.4267 67.3333 20.2 68.56C20.9733 69.7867 21.36 71.2 21.36 72.8V73.6C21.36 73.7333 21.3067 73.8533 21.2 73.96C21.12 74.04 21.0133 74.08 20.88 74.08H16.28C16.1467 74.08 16.0267 74.04 15.92 73.96C15.84 73.8533 15.8 73.7333 15.8 73.6V72.88C15.8 71.92 15.4667 71.12 14.8 70.48C14.1333 69.84 13.2267 69.52 12.08 69.52C11.12 69.52 10.36 69.7733 9.8 70.28C9.26667 70.76 9 71.44 9 72.32C9 72.9333 9.16 73.4667 9.48 73.92C9.8 74.3733 10.2933 74.8133 10.96 75.24C11.6267 75.64 12.64 76.1733 14 76.84L14.84 77.32C16.3867 78.1733 17.5867 78.92 18.44 79.56C19.32 80.1733 20.0533 80.96 20.64 81.92C21.2267 82.88 21.52 84.04 21.52 85.4C21.52 87.8267 20.6933 89.76 19.04 91.2C17.4133 92.6133 15.24 93.32 12.52 93.32ZM33.5813 93.32C31.7679 93.32 30.1679 92.96 28.7813 92.24C27.3946 91.52 26.3146 90.4933 25.5413 89.16C24.7946 87.8267 24.4213 86.28 24.4213 84.52V73.4C24.4213 71.6667 24.7946 70.1467 25.5413 68.84C26.3146 67.5067 27.3946 66.48 28.7813 65.76C30.1679 65.04 31.7679 64.68 33.5813 64.68C35.3946 64.68 36.9946 65.04 38.3813 65.76C39.7679 66.4533 40.8346 67.44 41.5813 68.72C42.3546 70 42.7413 71.4933 42.7413 73.2V73.4C42.7413 73.5333 42.6879 73.6533 42.5813 73.76C42.5013 73.8667 42.3946 73.92 42.2613 73.92L37.5813 74.12C37.2613 74.12 37.1013 73.9733 37.1013 73.68V73.16C37.1013 72.0667 36.7813 71.1867 36.1413 70.52C35.5013 69.8533 34.6479 69.52 33.5813 69.52C32.5146 69.52 31.6613 69.8533 31.0213 70.52C30.3813 71.1867 30.0613 72.0667 30.0613 73.16V84.88C30.0613 85.9733 30.3813 86.8533 31.0213 87.52C31.6613 88.16 32.5146 88.48 33.5813 88.48C34.6479 88.48 35.5013 88.16 36.1413 87.52C36.7813 86.8533 37.1013 85.9733 37.1013 84.88V84.36C37.1013 84.0667 37.2613 83.92 37.5813 83.92L42.2613 84.12C42.3946 84.12 42.5013 84.1733 42.5813 84.28C42.6879 84.36 42.7413 84.4667 42.7413 84.6V84.72C42.7413 86.4267 42.3546 87.9333 41.5813 89.24C40.8346 90.5467 39.7679 91.56 38.3813 92.28C36.9946 92.9733 35.3946 93.32 33.5813 93.32ZM46.8266 93C46.6932 93 46.5732 92.96 46.4666 92.88C46.3866 92.7733 46.3466 92.6533 46.3466 92.52V65.48C46.3466 65.3467 46.3866 65.24 46.4666 65.16C46.5732 65.0533 46.6932 65 46.8266 65H51.5066C51.6399 65 51.7466 65.0533 51.8266 65.16C51.9332 65.24 51.9866 65.3467 51.9866 65.48V92.52C51.9866 92.6533 51.9332 92.7733 51.8266 92.88C51.7466 92.96 51.6399 93 51.5066 93H46.8266ZM64.5903 93.32C62.7503 93.32 61.137 93 59.7503 92.36C58.3636 91.6933 57.2836 90.7733 56.5103 89.6C55.7636 88.4 55.3903 87.0267 55.3903 85.48V84.44C55.3903 84.3067 55.4303 84.2 55.5103 84.12C55.617 84.0133 55.737 83.96 55.8703 83.96H60.4703C60.6036 83.96 60.7103 84.0133 60.7903 84.12C60.897 84.2 60.9503 84.3067 60.9503 84.44V85.2C60.9503 86.1333 61.297 86.92 61.9903 87.56C62.6836 88.1733 63.617 88.48 64.7903 88.48C65.8303 88.48 66.617 88.2133 67.1503 87.68C67.7103 87.1467 67.9903 86.4667 67.9903 85.64C67.9903 85.0267 67.817 84.5067 67.4703 84.08C67.1236 83.6267 66.6303 83.2133 65.9903 82.84C65.377 82.44 64.417 81.9067 63.1103 81.24C61.5103 80.44 60.2036 79.6933 59.1903 79C58.177 78.3067 57.3103 77.4133 56.5903 76.32C55.8703 75.2267 55.5103 73.9067 55.5103 72.36C55.5103 70.8133 55.8703 69.4667 56.5903 68.32C57.337 67.1467 58.377 66.2533 59.7103 65.64C61.0436 65 62.5636 64.68 64.2703 64.68C66.057 64.68 67.6436 65.0267 69.0303 65.72C70.417 66.3867 71.497 67.3333 72.2703 68.56C73.0436 69.7867 73.4303 71.2 73.4303 72.8V73.6C73.4303 73.7333 73.377 73.8533 73.2703 73.96C73.1903 74.04 73.0836 74.08 72.9503 74.08H68.3503C68.217 74.08 68.097 74.04 67.9903 73.96C67.9103 73.8533 67.8703 73.7333 67.8703 73.6V72.88C67.8703 71.92 67.537 71.12 66.8703 70.48C66.2036 69.84 65.297 69.52 64.1503 69.52C63.1903 69.52 62.4303 69.7733 61.8703 70.28C61.337 70.76 61.0703 71.44 61.0703 72.32C61.0703 72.9333 61.2303 73.4667 61.5503 73.92C61.8703 74.3733 62.3636 74.8133 63.0303 75.24C63.697 75.64 64.7103 76.1733 66.0703 76.84L66.9103 77.32C68.457 78.1733 69.657 78.92 70.5103 79.56C71.3903 80.1733 72.1236 80.96 72.7103 81.92C73.297 82.88 73.5903 84.04 73.5903 85.4C73.5903 87.8267 72.7636 89.76 71.1103 91.2C69.4836 92.6133 67.3103 93.32 64.5903 93.32ZM85.3716 93.32C83.5316 93.32 81.9182 93 80.5316 92.36C79.1449 91.6933 78.0649 90.7733 77.2916 89.6C76.5449 88.4 76.1716 87.0267 76.1716 85.48V84.44C76.1716 84.3067 76.2116 84.2 76.2916 84.12C76.3982 84.0133 76.5182 83.96 76.6516 83.96H81.2516C81.3849 83.96 81.4916 84.0133 81.5716 84.12C81.6782 84.2 81.7316 84.3067 81.7316 84.44V85.2C81.7316 86.1333 82.0782 86.92 82.7716 87.56C83.4649 88.1733 84.3982 88.48 85.5716 88.48C86.6116 88.48 87.3982 88.2133 87.9316 87.68C88.4916 87.1467 88.7716 86.4667 88.7716 85.64C88.7716 85.0267 88.5982 84.5067 88.2516 84.08C87.9049 83.6267 87.4116 83.2133 86.7716 82.84C86.1582 82.44 85.1982 81.9067 83.8916 81.24C82.2916 80.44 80.9849 79.6933 79.9716 79C78.9582 78.3067 78.0916 77.4133 77.3716 76.32C76.6516 75.2267 76.2916 73.9067 76.2916 72.36C76.2916 70.8133 76.6516 69.4667 77.3716 68.32C78.1182 67.1467 79.1582 66.2533 80.4916 65.64C81.8249 65 83.3449 64.68 85.0516 64.68C86.8382 64.68 88.4249 65.0267 89.8116 65.72C91.1982 66.3867 92.2782 67.3333 93.0516 68.56C93.8249 69.7867 94.2116 71.2 94.2116 72.8V73.6C94.2116 73.7333 94.1582 73.8533 94.0516 73.96C93.9716 74.04 93.8649 74.08 93.7316 74.08H89.1316C88.9982 74.08 88.8782 74.04 88.7716 73.96C88.6916 73.8533 88.6516 73.7333 88.6516 73.6V72.88C88.6516 71.92 88.3182 71.12 87.6516 70.48C86.9849 69.84 86.0782 69.52 84.9316 69.52C83.9716 69.52 83.2116 69.7733 82.6516 70.28C82.1182 70.76 81.8516 71.44 81.8516 72.32C81.8516 72.9333 82.0116 73.4667 82.3316 73.92C82.6516 74.3733 83.1449 74.8133 83.8116 75.24C84.4782 75.64 85.4916 76.1733 86.8516 76.84L87.6916 77.32C89.2382 78.1733 90.4382 78.92 91.2916 79.56C92.1716 80.1733 92.9049 80.96 93.4916 81.92C94.0782 82.88 94.3716 84.04 94.3716 85.4C94.3716 87.8267 93.5449 89.76 91.8916 91.2C90.2649 92.6133 88.0916 93.32 85.3716 93.32ZM106.553 93.36C104.713 93.36 103.086 92.9867 101.673 92.24C100.286 91.4933 99.2061 90.44 98.4328 89.08C97.6595 87.72 97.2728 86.1333 97.2728 84.32V73.68C97.2728 71.8933 97.6595 70.32 98.4328 68.96C99.2061 67.6 100.286 66.5467 101.673 65.8C103.086 65.0533 104.713 64.68 106.553 64.68C108.393 64.68 110.019 65.0533 111.433 65.8C112.846 66.5467 113.939 67.6 114.713 68.96C115.486 70.32 115.873 71.8933 115.873 73.68V84.32C115.873 86.1333 115.486 87.72 114.713 89.08C113.939 90.44 112.846 91.4933 111.433 92.24C110.019 92.9867 108.393 93.36 106.553 93.36ZM106.553 88.52C107.673 88.52 108.566 88.16 109.233 87.44C109.899 86.6933 110.233 85.7333 110.233 84.56V73.52C110.233 72.32 109.899 71.36 109.233 70.64C108.566 69.8933 107.673 69.52 106.553 69.52C105.459 69.52 104.579 69.8933 103.913 70.64C103.246 71.36 102.913 72.32 102.913 73.52V84.56C102.913 85.7333 103.246 86.6933 103.913 87.44C104.579 88.16 105.459 88.52 106.553 88.52ZM132.788 93C132.494 93 132.308 92.8667 132.228 92.6L128.188 81.56C128.134 81.4533 128.068 81.4 127.988 81.4H125.468C125.334 81.4 125.268 81.4667 125.268 81.6V92.52C125.268 92.6533 125.214 92.7733 125.108 92.88C125.028 92.96 124.921 93 124.788 93H120.108C119.974 93 119.854 92.96 119.748 92.88C119.668 92.7733 119.628 92.6533 119.628 92.52V65.48C119.628 65.3467 119.668 65.24 119.748 65.16C119.854 65.0533 119.974 65 120.108 65H129.868C131.441 65 132.841 65.36 134.068 66.08C135.294 66.7733 136.241 67.76 136.908 69.04C137.574 70.32 137.908 71.7867 137.908 73.44C137.908 75.1467 137.534 76.6267 136.788 77.88C136.041 79.1333 134.988 80.0667 133.628 80.68C133.494 80.7333 133.454 80.8267 133.508 80.96L138.068 92.44C138.094 92.4933 138.108 92.56 138.108 92.64C138.108 92.88 137.961 93 137.668 93H132.788ZM125.468 69.84C125.334 69.84 125.268 69.9067 125.268 70.04V76.88C125.268 77.0133 125.334 77.08 125.468 77.08H128.948C129.934 77.08 130.734 76.76 131.348 76.12C131.961 75.4533 132.268 74.5733 132.268 73.48C132.268 72.36 131.961 71.48 131.348 70.84C130.734 70.1733 129.934 69.84 128.948 69.84H125.468ZM149.786 93.32C147.946 93.32 146.332 93 144.946 92.36C143.559 91.6933 142.479 90.7733 141.706 89.6C140.959 88.4 140.586 87.0267 140.586 85.48V84.44C140.586 84.3067 140.626 84.2 140.706 84.12C140.812 84.0133 140.932 83.96 141.066 83.96H145.666C145.799 83.96 145.906 84.0133 145.986 84.12C146.092 84.2 146.146 84.3067 146.146 84.44V85.2C146.146 86.1333 146.492 86.92 147.186 87.56C147.879 88.1733 148.812 88.48 149.986 88.48C151.026 88.48 151.812 88.2133 152.346 87.68C152.906 87.1467 153.186 86.4667 153.186 85.64C153.186 85.0267 153.012 84.5067 152.666 84.08C152.319 83.6267 151.826 83.2133 151.186 82.84C150.572 82.44 149.612 81.9067 148.306 81.24C146.706 80.44 145.399 79.6933 144.386 79C143.372 78.3067 142.506 77.4133 141.786 76.32C141.066 75.2267 140.706 73.9067 140.706 72.36C140.706 70.8133 141.066 69.4667 141.786 68.32C142.532 67.1467 143.572 66.2533 144.906 65.64C146.239 65 147.759 64.68 149.466 64.68C151.252 64.68 152.839 65.0267 154.226 65.72C155.612 66.3867 156.692 67.3333 157.466 68.56C158.239 69.7867 158.626 71.2 158.626 72.8V73.6C158.626 73.7333 158.572 73.8533 158.466 73.96C158.386 74.04 158.279 74.08 158.146 74.08H153.546C153.412 74.08 153.292 74.04 153.186 73.96C153.106 73.8533 153.066 73.7333 153.066 73.6V72.88C153.066 71.92 152.732 71.12 152.066 70.48C151.399 69.84 150.492 69.52 149.346 69.52C148.386 69.52 147.626 69.7733 147.066 70.28C146.532 70.76 146.266 71.44 146.266 72.32C146.266 72.9333 146.426 73.4667 146.746 73.92C147.066 74.3733 147.559 74.8133 148.226 75.24C148.892 75.64 149.906 76.1733 151.266 76.84L152.106 77.32C153.652 78.1733 154.852 78.92 155.706 79.56C156.586 80.1733 157.319 80.96 157.906 81.92C158.492 82.88 158.786 84.04 158.786 85.4C158.786 87.8267 157.959 89.76 156.306 91.2C154.679 92.6133 152.506 93.32 149.786 93.32Z" fill="white"/>
</g>
<defs>
<filter id="filter0_d_0_1666" x="0.319946" y="0.679993" width="161.466" height="98.68" filterUnits="userSpaceOnUse" color-interpolation-filters="sRGB">
<feFlood flood-opacity="0" result="BackgroundImageFix"/>
<feColorMatrix in="SourceAlpha" type="matrix" values="0 0 0 0 0 0 0 0 0 0 0 0 0 0 0 0 0 0 127 0" result="hardAlpha"/>
<feOffset dy="3"/>
<feGaussianBlur stdDeviation="1.5"/>
<feColorMatrix type="matrix" values="0 0 0 0 0 0 0 0 0 0 0 0 0 0 0 0 0 0 0.196706 0"/>
<feBlend mode="normal" in2="BackgroundImageFix" result="effect1_dropShadow_0_1666"/>
<feBlend mode="normal" in="SourceGraphic" in2="effect1_dropShadow_0_1666" result="shape"/>
</filter>
</defs>
</svg>
