<svg width="110" height="112" viewBox="0 0 110 112" fill="none" xmlns="http://www.w3.org/2000/svg">
<ellipse cx="54.6862" cy="55.8152" rx="53.6862" ry="54.8152" fill="#B1B4C5"/>
<ellipse cx="54.6862" cy="53.385" rx="53.6862" ry="52.385" fill="url(#paint0_linear_0_1168)"/>
<ellipse cx="54.6863" cy="54.4651" rx="41.2137" ry="41.0439" fill="#E1E4ED"/>
<path d="M70.652 48.5703C70.1767 42.5739 63.444 43.1862 63.444 43.1862C60.6023 38.1753 56.163 41.8048 56.163 41.8048C52.7525 36.8937 48.4763 41.4446 48.4763 41.4446C41.1036 40.6493 41.3893 46.679 41.3893 46.679C41.2158 48.5957 42.4284 54.5258 42.4284 54.5258C41.3346 51.1079 38.9622 53.9451 38.9622 53.9451C36.0456 58.4472 38.241 60.9116 38.241 60.9116C42.1876 65.5385 50.5982 71.0915 50.5982 71.0915C53.6436 72.8367 52.3555 74.3929 52.3555 74.3929L70.7758 71.3482L71.1993 67.8539C73.9994 59.3823 70.652 48.5703 70.652 48.5703Z" fill="#8A90AC"/>
<defs>
<linearGradient id="paint0_linear_0_1168" x1="1" y1="0.999969" x2="1" y2="105.77" gradientUnits="userSpaceOnUse">
<stop stop-color="white" stop-opacity="0.0966455"/>
<stop offset="1" stop-color="white" stop-opacity="0.01"/>
</linearGradient>
</defs>
</svg>
