<svg width="96" height="96" viewBox="0 0 96 96" fill="none" xmlns="http://www.w3.org/2000/svg">
<path d="M90.8144 25.1747C89.5191 8.76561 71.1713 10.441 71.1713 10.441C63.4269 -3.27109 51.329 6.6609 51.329 6.6609C42.0348 -6.77796 30.3814 5.67525 30.3814 5.67525C10.2892 3.49892 11.068 19.9991 11.068 19.9991C10.5951 25.2442 13.8996 41.4716 13.8996 41.4716C10.9188 32.1187 4.45341 39.8825 4.45341 39.8825C-3.49484 52.2023 2.48823 58.9462 2.48823 58.9462C13.2433 71.6075 36.1639 86.8031 36.1639 86.8031C44.4632 91.5787 40.9528 95.8371 40.9528 95.8371L91.1518 87.5056L92.3059 77.9435C99.9368 54.7613 90.8144 25.1747 90.8144 25.1747Z" fill="#3B4262"/>
</svg>
