<svg width="70" height="79" viewBox="0 0 70 79" fill="none" xmlns="http://www.w3.org/2000/svg">
<path d="M19.1599 35.3494L27.3693 23.8064C23.957 23.2376 17.691 23.1115 12.5583 28.2442C4.46761 36.3349 1.19095 53.8128 0.507852 58.0437L21.0706 78.6064C24.7722 78.2894 41.1615 76.1013 56.9538 60.309C57.1215 59.968 60.9682 57.1255 57.8231 53.9804C56.322 52.4793 53.837 52.5073 52.3033 54.041C51.5225 54.8218 50.308 54.8333 49.5434 54.0687C48.7788 53.3041 48.7903 52.0896 49.5712 51.3088L55.1515 45.7284C57.9874 42.8925 55.3143 38.1083 51.3563 39.2576L46.7876 43.1687C45.9532 43.896 44.7132 43.77 44.0275 42.9775C43.3188 42.1569 43.4703 40.9146 44.2767 40.2153C60.2354 26.2135 57.9059 27.8998 68.1726 18.2763C72.0088 15.0824 67.1833 9.43281 63.4032 12.6675L38.5656 35.0027C37.8432 35.6181 36.7357 35.6297 36.0246 34.9746C35.2041 34.266 35.1852 33.245 35.7216 32.4384L53.0463 5.50522C55.5787 2.07573 50.5947 -1.73319 47.9274 1.72416L22.3117 37.5499C21.6939 38.4429 20.4491 38.6479 19.6006 38.0232C18.7496 37.452 18.5166 36.2119 19.1599 35.3494Z" fill="#3B4262"/>
</svg>
