<svg width="110" height="110" viewBox="0 0 110 110" fill="none" xmlns="http://www.w3.org/2000/svg">
<ellipse cx="54.6862" cy="54.8152" rx="53.6862" ry="54.8152" fill="#B1B4C5"/>
<ellipse cx="54.6862" cy="52.385" rx="53.6862" ry="52.385" fill="url(#paint0_linear_0_1160)"/>
<ellipse cx="54.6863" cy="53.4651" rx="41.2137" ry="41.0439" fill="#E1E4ED"/>
<path d="M43.9274 53.1138L48.3792 46.8799C46.5288 46.5728 43.1308 46.5047 40.3474 49.2766C35.96 53.646 34.1831 63.085 33.8126 65.3699L44.9635 76.4748C46.9708 76.3036 55.8585 75.1219 64.4224 66.5933C64.5134 66.4091 66.5994 64.874 64.8939 63.1755C64.0798 62.3648 62.7323 62.3799 61.9006 63.2082C61.4771 63.6299 60.8185 63.6361 60.4039 63.2232C59.9893 62.8102 59.9955 62.1544 60.4189 61.7327L63.4451 58.719C64.983 57.1874 63.5333 54.6037 61.387 55.2244L58.9095 57.3366C58.457 57.7294 57.7845 57.6613 57.4127 57.2333C57.0284 56.7902 57.1105 56.1193 57.5478 55.7416C66.202 48.1799 64.9387 49.0906 70.5062 43.8934C72.5865 42.1685 69.9697 39.1175 67.9198 40.8644L54.4508 52.9265C54.059 53.2589 53.4584 53.2652 53.0729 52.9114C52.6279 52.5287 52.6177 51.9773 52.9085 51.5417L62.3035 36.9964C63.6767 35.1443 60.974 33.0873 59.5275 34.9544L45.6365 54.3022C45.3015 54.7844 44.6265 54.8951 44.1663 54.5578C43.7049 54.2493 43.5785 53.5796 43.9274 53.1138Z" fill="#8A90AC"/>
<defs>
<linearGradient id="paint0_linear_0_1160" x1="1" y1="0" x2="1" y2="104.77" gradientUnits="userSpaceOnUse">
<stop stop-color="white" stop-opacity="0.0966455"/>
<stop offset="1" stop-color="white" stop-opacity="0.01"/>
</linearGradient>
</defs>
</svg>
