<svg width="136" height="139" viewBox="0 0 136 139" fill="none" xmlns="http://www.w3.org/2000/svg">
<g filter="url(#filter0_d_0_1386)">
<ellipse cx="68.317" cy="66.3291" rx="64.6828" ry="66.3291" fill="#C76C1B"/>
</g>
<ellipse cx="68.317" cy="63.3884" rx="64.6828" ry="63.3884" fill="#EB9F0E"/>
<ellipse cx="68.317" cy="63.3884" rx="64.6828" ry="63.3884" fill="url(#paint0_linear_0_1386)"/>
<ellipse cx="68.3171" cy="64.6953" rx="49.6555" ry="49.6651" fill="#BABFD4"/>
<ellipse cx="68.3171" cy="67.3093" rx="49.6555" ry="47.0512" fill="url(#paint1_linear_0_1386)"/>
<path d="M55.3542 64.2702L60.7179 56.727C58.4884 56.3553 54.3945 56.2729 51.041 59.6271C45.7548 64.9142 43.614 76.3358 43.1676 79.1006L56.6025 92.5381C59.021 92.331 69.7292 90.9011 80.0472 80.581C80.1568 80.3582 82.6701 78.5006 80.6152 76.4454C79.6344 75.4644 78.0109 75.4827 77.0088 76.4849C76.4986 76.9952 75.7052 77.0027 75.2056 76.503C74.706 76.0034 74.7135 75.2097 75.2237 74.6995L78.8697 71.0528C80.7226 69.1995 78.976 66.0731 76.3901 66.8241L73.405 69.38C72.8599 69.8553 72.0497 69.773 71.6017 69.2551C71.1387 68.7188 71.2377 67.907 71.7645 67.45C82.1913 58.3 80.6693 59.402 87.3772 53.1131C89.8836 51.0259 86.7308 47.334 84.261 49.4479L68.0331 64.0436C67.5611 64.4458 66.8375 64.4534 66.3729 64.0253C65.8368 63.5622 65.8245 62.895 66.1749 62.3679L77.4942 44.7674C79.1488 42.5262 75.8924 40.0372 74.1497 42.2965L57.4134 65.7082C57.0098 66.2918 56.1965 66.4257 55.6421 66.0175C55.0861 65.6443 54.9339 64.8338 55.3542 64.2702Z" fill="#3B4262"/>
<defs>
<filter id="filter0_d_0_1386" x="0.634277" y="0" width="135.366" height="138.658" filterUnits="userSpaceOnUse" color-interpolation-filters="sRGB">
<feFlood flood-opacity="0" result="BackgroundImageFix"/>
<feColorMatrix in="SourceAlpha" type="matrix" values="0 0 0 0 0 0 0 0 0 0 0 0 0 0 0 0 0 0 127 0" result="hardAlpha"/>
<feOffset dy="3"/>
<feGaussianBlur stdDeviation="1.5"/>
<feColorMatrix type="matrix" values="0 0 0 0 0 0 0 0 0 0 0 0 0 0 0 0 0 0 0.196706 0"/>
<feBlend mode="normal" in2="BackgroundImageFix" result="effect1_dropShadow_0_1386"/>
<feBlend mode="normal" in="SourceGraphic" in2="effect1_dropShadow_0_1386" result="shape"/>
</filter>
<linearGradient id="paint0_linear_0_1386" x1="3.63428" y1="0" x2="3.63428" y2="126.777" gradientUnits="userSpaceOnUse">
<stop stop-color="white" stop-opacity="0.0966455"/>
<stop offset="1" stop-color="white" stop-opacity="0.01"/>
</linearGradient>
<linearGradient id="paint1_linear_0_1386" x1="117.149" y1="114.36" x2="117.149" y2="21.8179" gradientUnits="userSpaceOnUse">
<stop stop-color="#F3F3F3"/>
<stop offset="1" stop-color="#DADADA"/>
</linearGradient>
</defs>
</svg>
